<svg xmlns="http://www.w3.org/2000/svg" width="1536" height="1024"><path fill="#3FC1D9" d="M466.344 302.64c4.192 1.56 7.552 1.756 11.969 1.798 7.475.216 14.363 1.346 21.585 3.279 3.715.95 5.815 1.34 9.676.58 4.286-.372 5.546.656 8.774 3.281l1.777 1.547 1.8 1.477c12.234 10.153 12.234 10.153 13.95 16.773.147 4.253-.528 6.105-2.875 9.625-3.461 3.117-6.728 4.902-11.062 6.563-3.798 1.46-6.723 2.967-9.938 5.437h-2c.441 5.298 1.252 10.019 2.75 15.125.993 3.9 1.293 5.675.438 9.688-2.018 2.94-3.709 4.543-6.438 6.75-2.12 1.653-2.12 1.653-3.75 3.437-.158 4.102.728 5.592 3 9 .35 3.772.234 6.39-1.125 9.938C503 409 503 409 500.168 409.375c-3.89-.46-5.02-1.553-7.73-4.312-3.106-3.14-4.998-4.571-9.438-5.063-.164 4.633.24 8.68 1.22 13.204 2.611 12.147 2.611 12.147-.075 18.07-3.777 5.696-9.844 8.787-16.381 10.214a252 252 0 0 1-7.139 1.075c-2.907.4-5.742.87-8.625 1.437l-1 2 2 2h-2l1.496 2.816 1.942 3.747.986 1.845c2.527 4.924 4.15 9.559 3.088 15.174l-.825 2.23-.8 2.27C456 478 456 478 454 480c-3.072.833-4.92 1.333-8 1-3.92-2.283-6.504-5.256-9-9l-3-1c2.364 7.526 2.364 7.526 6.25 14.313 2.056 3.158 2.102 4.99 1.75 8.687-4.812-.425-7.812-2.531-11-6-4.238-5.292-6.26-9.618-6.437-16.437-.194-6.353-2.127-9.687-5.774-14.774-2.93-4.567-4.33-9.597-5.789-14.789-2.293-.81-2.293-.81-5-1-2.222 1.356-2.222 1.356-4.125 3.375-3.627 3.542-3.627 3.542-6.875 4.625-1.373 2.289-2.153 4.458-3 7h-3l-.816 2.117c-1.26 3.07-2.656 6.032-4.122 9.008l-1.527 3.133c-1.342 2.397-2.393 4.05-4.535 5.742-2.801-.09-3.887-.899-5.973-2.766-7.991-8.807-9.465-22.579-11.765-33.851-1.207-5.882-1.207-5.882-4.387-10.82L355 427l-2.043-1.156a282 282 0 0 0-4.598-2.54c-3.543-1.959-6.95-4.121-10.359-6.304 1.786 6.614 1.786 6.614 5.75 12.063C346 432 346 432 346.25 435.875c-1.712 8.247-9.335 13.23-15.82 17.777-2.569 1.425-4.507 2.098-7.43 2.348-2.812-1.687-2.812-1.687-5-5-5.64-27.372 11.683-65.815 26.41-88.23 3.926-5.801 8.18-11.33 12.59-16.77l1.283-1.586c3.563-4.352 7.395-7.844 11.717-11.414l3.031-2.54c13.135-10.803 27.399-18.412 42.844-25.397l1.872-.853c18.652-8.45 29.984-10.702 48.597-1.57"/><path fill="#3FC1DA" d="m701.563 302.688 3.816-.051c3.89.39 6.297 1.347 9.621 3.363 2.646 3.367 2.236 6.857 2 11-3.711 10.665-10.465 18.822-18 27l-3.469 3.832a1968 1968 0 0 1-3.593 3.918l-1.64 1.787-1.646 1.76-1.6 1.713C685 359 685 359 682.445 360.902c-5.357 4.012-5.357 4.012-8.106 9.876.048 3.215.413 6.227.926 9.402l.432 3.534c.466 3.729 1.006 7.443 1.552 11.161.484 3.64.952 7.28 1.42 10.921q.47 3.633.959 7.264c5.546 41.795 5.546 41.795 1.371 50.94-2.613 3.026-5.1 5.853-9 7-3.423.063-5.885-.022-8.541-2.352-3.688-4.313-6.033-8.413-8.021-13.71l-.956-2.461c-3.713-9.765-7.081-19.662-10.482-29.54-.297-.86-.595-1.722-.9-2.61q-1.276-3.71-2.538-7.425l-.784-2.28c-1.01-2.995-1.778-5.438-1.778-8.622-10.632 7.142-20.947 14.632-31.164 22.355a760 760 0 0 1-10.916 8.102q-1.833 1.338-3.655 2.691c-2.984 2.218-5.992 4.342-9.113 6.364-6.404 3.962-6.404 3.962-9.77 10.312.245 2.884.795 5.406 1.618 8.176 1.101 6.107 1.09 9.703-2.297 15.047-2.727 3.851-5.19 7.171-9.703 8.953-2.028-.217-2.028-.217-4-1-1.097-1.582-1.097-1.582-1.922-3.598l-.918-2.177-.91-2.288-.957-2.298A517 517 0 0 1 552 467c-4.066.835-5.869 2.478-8.875 5.375-4.664 4.39-9.526 8.395-14.59 12.313a469 469 0 0 0-11.252 9.002C496.287 510.977 474.031 526.248 450 539l-2.78 1.481A1272 1272 0 0 1 427 551l-2.096 1.066a246 246 0 0 1-47.091 17.871l-2.134.567c-27.88 6.954-57.663 5.9-82.991-8.379-8.985-5.664-16-13.808-19.125-24.125-2.04-10.643 2.035-21.785 7.562-30.812L283 505h3l-.105 2.781c-.253 10.008-.253 10.008 3.105 19.219l1.254 2.27c5.864 9.634 15.206 15.503 25.933 18.671 8.907 2.095 17.705 2.759 26.813 3.059l3.012.125C407.339 552.494 466.618 514.088 510 474l2.887-2.61c5.205-4.707 10.34-9.487 15.363-14.39l2.766-2.687c2.31-2.185 2.31-2.185 1.984-5.313l-2.074-.805c-3.294-1.345-6.511-2.82-9.739-4.32l-3.519-1.633L515 441c2.657-6.49 9.68-11.36 16-14.062 5.365-1.561 11.053-.749 16.53-.096 4.01.398 5.994.397 9.685-1.46 2.945-2.52 5.598-5.171 8.16-8.07q1.574-1.74 3.152-3.476l1.691-1.872c10.747-11.845 21.669-23.47 34.032-33.655 2.377-1.996 4.122-3.686 5.75-6.309v-2l-2.21-.828c-8.36-3.512-15.58-9.463-22.79-14.86-10.841-8.097-22.138-15.407-33.867-22.152l-2.183-1.257c-2.046-1.113-2.046-1.113-4.95-.903-1.437-1.25-1.437-1.25-3-3l-2.187-2.187L537 323q1.364-2.164 2.75-4.312c.51-.801 1.02-1.602 1.547-2.426 2.222-2.951 4.186-4.985 7.908-5.665 6.615.056 12.176 1.422 18.42 3.528 10.93 3.5 21.924 6.395 33.078 9.08 3.59.866 7.178 1.742 10.766 2.62l7.656 1.863 3.553.865q3.427.826 6.862 1.618c2.413.578 4.812 1.217 7.198 1.9 6.204 1.902 6.204 1.902 12.418 1.122 1.846-1.464 3.236-2.99 4.719-4.818q1.725-1.845 3.477-3.664l1.786-1.888c10.967-10.737 26.922-20.088 42.424-20.135"/><path fill="#40C1D9" d="M479.996 260.875c37.923-.789 78.148 9.55 109.004 32.125l2.637 1.781c5.871 4.046 11.18 8.593 16.426 13.406l1.987 1.802 1.86 1.741 1.66 1.544c1.732 2.09 2.535 4.18 3.43 6.726-19.043-2.93-19.043-2.93-22.522-3.478q-3.468-.52-6.952-.939c-6.967-.882-11.963-2.29-17.776-6.208a698 698 0 0 0-4.387-2.719l-2.204-1.363C545.814 294.904 524.965 287.845 505 285l-1.932-.28c-41.42-5.348-87.2 4.264-120.736 29.655-38.48 29.994-62.075 69.867-68.73 118.54-3.965 38.033 4.04 78.238 27.398 109.085l2 1-1 3c-3.918-.614-7.834-1.243-11.75-1.875l-3.367-.527-3.242-.528-2.984-.476c-3.497-.782-5.878-1.602-8.114-4.45-23.841-41.017-27.738-89.612-16.298-135.304C306.92 362.675 330.36 326.776 363 301l2.598-2.148c32.458-25.874 73.737-36.28 114.398-37.977M638 430c3 1 3 1 4.087 2.867l.999 2.438 1.125 2.692 1.164 2.878q1.195 2.893 2.395 5.785l1.158 2.81c1.6 3.775 3.408 7.441 5.295 11.08 2.046 6.448.49 13.247-.848 19.7l-.54 2.62c-3.453 16.153-8.568 31.3-15.835 46.13l-.993 2.027c-6.29 12.662-14.056 23.91-23.16 34.73-1.96 2.304-1.96 2.304-3.847 5.243h-2l-.754 1.738C601.686 581.014 592.33 587.304 585 593l-1.696 1.321C555.642 615.711 521.208 629.13 486 630l-2.688.078c-47.225 1.215-93.188-10.963-128.047-43.963A912 912 0 0 1 351 582l1-2c4.663-1.379 9.67-1.41 14.5-1.687l2.55-.182c7.306-.42 11.478 1.486 17.619 5.245C406.15 595.298 428.259 604.073 451 607l2.486.324c39.17 4.85 77.833-2.667 110.514-25.324l3.285-2.262A152.7 152.7 0 0 0 605 540c.39-.595.782-1.19 1.185-1.802C627.66 505.077 634.525 468.661 638 430"/><path fill="#3FC1D9" d="M515 521c4.247 3.337 6.516 7.308 9 12 5.912-.348 8.039-1.709 12-6h3l.805 2.484 1.07 3.266 1.055 3.234c.877 2.471 1.83 4.713 3.07 7.016h2c4.648 5.229 7.05 9.876 7 17-1.302 8.741-6.807 14.77-13.617 20.016-6.437 4.34-13.51 8.569-21.508 7.609-4.127-2.333-7.383-5.444-10.875-8.625a132 132 0 0 0-3.937-3.375l-1.715-1.46c-4.396-2.18-8.931-2.846-13.695-1.503-2.413.987-4.75 2.065-7.09 3.213-6.601 3.189-12.2 4.832-19.563 5.125-1.079-4.865-1.398-9.678-1.734-14.64-.234-2.96-.606-5.86-1.016-8.798-.415-4.43-.061-6.924 2.75-10.562 1.996-1.605 4.042-2.952 6.23-4.285 2.887-1.74 2.887-1.74 5.946-4.024 7.584-5.44 13.26-7.716 22.644-7.984 3.451-.413 3.451-.413 5.461-3.64L504 524c3.635-2.87 6.396-3.767 11-3"/><path d="M829.166 357.814h2.068c2.032-.001 4.064-.02 6.096-.039 24.832-.036 24.832-.036 33.385 7.795 6.801 7.417 7.876 13.83 7.62 23.766-.566 6.188-1.914 10.396-6.5 14.691A98 98 0 0 1 865 409l-3 2 1.545 2.599q2.838 4.782 5.663 9.571 1.224 2.07 2.453 4.138c1.18 1.983 2.351 3.97 3.523 5.958l1.11 1.86C878 438.031 879.447 440.65 880 444c-3.066.217-6.117.375-9.187.5l-2.62.203c-6.238.191-6.238.191-8.683-2.098-1.356-2.135-2.424-4.32-3.51-6.605q-1.65-2.915-3.332-5.812a3947 3947 0 0 1-3.48-6.188l-1.811-3.215q-2.19-3.891-4.377-7.785l-6 1-1 29c-3.146.786-5.022 1.094-8.125 1-3.67-.289-3.67-.289-5.875 1-2.125-.937-2.125-.937-4-2v-2l-2-1h2l-.007-3.068q-.03-14.281-.045-28.563-.007-7.344-.023-14.687-.016-7.08-.02-14.16-.003-2.707-.01-5.415-.01-3.78-.009-7.558l-.01-2.284c.016-8.36 3.831-6.417 11.29-6.45M836 374v24c11.555.157 11.555.157 22-3.687 2.75-3.18 3-5.124 3-9.313-.443-3.092-1.163-5.451-3-8-6.37-4.265-14.724-3.23-22-3M1247 358h18l2.938 7.527 1.021 2.618 5.196 13.314a52522 52522 0 0 0 14.72 37.697l2.123 5.432q1.484 3.794 2.967 7.592l.89 2.276c1.107 2.833 2.183 5.658 3.145 8.544-3.188 1.594-6.629 1.102-10.125 1.063l-2.285-.014q-2.795-.02-5.59-.049c-3.324-6.292-5.519-12.176-8-19l-32-1-3 10c-1.247 3.377-2.621 6.672-4 10h-18c.673-3.364 1.243-5.927 2.452-9.02l.896-2.31.976-2.483 1.026-2.637q1.094-2.813 2.193-5.624c1.934-4.946 3.855-9.897 5.777-14.848l1.184-3.045c3.91-10.073 7.744-20.174 11.559-30.283l.923-2.447q2.51-6.65 5.014-13.303m9 22c-2.485 5.9-4.703 11.873-6.75 17.938l-.675 1.97c-.942 2.831-1.575 5.086-1.575 8.092h19c-3.5-14.625-3.5-14.625-10-28M916 358h18a17064 17064 0 0 1 15.734 40.983q2.421 6.327 4.84 12.654l3.45 9.02 1.034 2.709.994 2.597.96 2.509c1.365 3.492 2.803 6.953 4.253 10.411C966 441 966 441 966 444l-19-1-6-18-32-1-2 9a88 88 0 0 1-2 5.5l-1 2.531C903 443 903 443 901 444c-2.718.072-5.409.093-8.125.063l-2.285-.014q-2.795-.02-5.59-.049c-1-2-1-2 .117-5.464q.868-2.278 1.758-4.548l.958-2.498c1.049-2.729 2.108-5.453 3.167-8.178l2.176-5.652q2.26-5.871 4.532-11.736c2.58-6.664 5.145-13.334 7.71-20.005a10897 10897 0 0 1 7.59-19.706c1.05-2.724 2.069-5.443 2.992-8.213m9 22-1 3h2zm-2 4-8 24h20c-2.341-8.133-5.102-16.052-8-24zM1154.125 364.305C1156 366 1156 366 1159 371l-10 10c-4-2-4-2-7.125-4.062-5.504-3.16-11.428-3.57-17.5-2-.784.35-1.568.7-2.375 1.062-.943 3.256-.943 3.256-1 7 4.07 5.697 9.715 6.807 16.188 8.75 10.192 3.295 18.027 6.506 23.496 16.25 2.592 5.909 2.951 11.825 1.109 18.02-3.055 7.63-7.536 12.461-14.855 16.168-10.155 4.246-21.897 3.442-32.22.066-5.672-2.533-10.493-6.752-14.718-11.254l-1-3a701 701 0 0 1 4.813-5l2.707-2.812C1109 418 1109 418 1112 418l.746 1.832c2.551 4.411 7.745 6.497 12.531 7.777 5.292.782 10.74.456 15.723-1.609 2.5-3.75 2.536-5.559 2-10-4.598-6.134-11.056-7.22-18.076-9.229-7.953-2.422-14.478-6.027-19.361-12.959l-1.434-1.98c-3.003-4.874-2.743-10.315-2.129-15.832 2.057-7.025 5.514-11.086 11.719-14.844 13.519-6.852 27.97-5.218 40.406 3.149M1040 358h53v16h-35v20l5.5-.5c7.842-.614 15.641-.59 23.5-.5.738 3.303 1.136 6.366 1.125 9.75l.008 2.36C1088 407 1088 407 1087 408c-2.146.088-4.294.107-6.441.098l-3.955-.01-4.167-.026-4.177-.013q-5.13-.02-10.26-.049l1 19h33c2.236 5.59 2.236 5.59 2.063 9.125-.276 3.79-.276 3.79.937 6.875-6.017 1.056-11.865 1.13-17.965 1.098l-3.131-.005c-3.28-.005-6.561-.018-9.841-.03q-3.349-.009-6.698-.014-8.182-.017-16.365-.049c-1.233-3.699-1.132-7.11-1.114-10.96v-2.454c0-2.679.009-5.357.016-8.035l.005-5.57q.006-7.332.024-14.663.016-8.795.023-17.59c.01-8.91.029-17.819.046-26.728M959.133 357.902l2.441.01 2.551.026 2.574.013q3.15.02 6.301.049l6.895 19.606a4407 4407 0 0 1 8.714 24.937l1.118 3.236q1.004 2.914 2 5.83l.882 2.563.75 2.19c.52 1.65.52 1.65 1.641 2.638 4.378-11.418 8.445-22.926 12.38-34.504q1.42-4.177 2.849-8.351l1.822-5.348.855-2.503.79-2.33.693-2.034c.618-1.953 1.114-3.943 1.611-5.93h19l1 2c-.721 2.102-1.548 4.168-2.414 6.215-2.677 6.464-5.188 12.975-7.61 19.539a11593.912 11593.912 0 0 0-4.352 11.809l-2.17 5.884-1.084 2.94q-1.076 2.916-2.156 5.83a667 667 0 0 0-5.395 15.115l-1.073 3.086q-1.015 2.925-1.989 5.864l-.92 2.632-.785 2.325C1005 443 1005 443 1003.028 443.75c-2.247.276-4.39.31-6.653.249-3.318-.127-3.318-.127-6.375 1-3.91-1.347-5.614-2.212-7.46-5.979l-1.024-3.65q-.609-2.043-1.225-4.082l-.63-2.142c-1.086-3.527-2.38-6.971-3.677-10.424-.26-.7-.52-1.4-.79-2.12q-.805-2.164-1.614-4.325a3930 3930 0 0 1-2.546-6.822 3609 3609 0 0 0-7.811-20.784l-1.247-3.293q-1.124-2.962-2.26-5.92c-1.514-3.99-2.875-7.879-3.83-12.041L955 360l-2-1c2.297-1.148 3.583-1.116 6.133-1.098"/><path fill="#000202" d="m752.398 357.88 3.223.006h3.64l3.962.016 4.031.005q5.315.006 10.628.024 5.42.014 10.839.02 10.64.016 21.279.049c.587 3.986 1.139 7.843 1.125 11.875l.008 2.305C811 374 811 374 810 375l-20 1-1 68c-9 0-9 0-13-1l-1 2-4-2v-68q-4.688.21-9.375.438l-2.695.119-2.578.127-2.38.11c-2.047.097-2.047.097-3.972 1.206-1.587-3.174-1.143-6.582-1.125-10.062l-.012-2.26c.012-6.622.012-6.622 3.535-6.798"/><path d="M1164 358h58v18h-20l.016 5.92q.023 9.675.036 19.35.007 5.866.023 11.733.016 5.66.02 11.32.003 2.162.01 4.322c.008 2.016.008 4.032.009 6.048l.006 3.479C1202 441 1202 441 1201 444q-3.97.04-7.937.063l-2.288.025A183 183 0 0 1 1185 444c-1-1-1-1-1.12-3.702l.006-3.654v-2.01c0-2.202.009-4.404.016-6.607l.005-4.57q.006-6.023.024-12.048.014-6.142.02-12.286.017-12.061.049-24.123h-20zM1057 469h7l.627 2.263q1.403 5.057 2.81 10.112l.987 3.563.947 3.398.873 3.142c.667 2.486.667 2.486 1.756 4.522l8-27h6c2.168 5.585 3.997 11.174 5.625 16.938 1.018 4.914 1.018 4.914 3.375 9.062l.627-2.171q1.404-4.854 2.81-9.704l.987-3.418.947-3.262.873-3.015C1102 471 1102 471 1103 469h7c-2.118 8.81-4.541 17.504-7.125 26.188l-1.09 3.712-1.043 3.518-.942 3.18C1099 508 1099 508 1098 509q-3.5.062-7 0l-.519-1.896c-.778-2.828-1.567-5.654-2.356-8.479l-.816-2.984-.801-2.852-.73-2.634c-.668-2.328-.668-2.328-2.778-4.155-2.27 5.064-4.08 10.13-5.687 15.438l-.682 2.216q-.82 2.672-1.631 5.346h-7l-.509-1.698-.73-2.43a5692.928 5692.928 0 0 0-2.76-9.18 6260 6260 0 0 1-3.188-10.63l-1.116-3.689-1.052-3.525-.958-3.188C1057 472 1057 472 1057 469m26 12 1 3Z"/><path fill="#020406" d="M776 469v6h-19v11l2.45-.254 3.237-.308 3.2-.317c2.927-.114 5.284.17 8.113.879.043 1.666.04 3.334 0 5-1 1-1 1-4.598 1.098a675 675 0 0 1-4.465-.036l-2.298-.013q-2.82-.02-5.639-.049v11l4-1c5.16-.17 9.914.152 15 1a88 88 0 0 1 1 5c-1 1-1 1-3.5 1.114l-3.285-.016-3.192-.008-4.086-.027L750 509v-40c18-1 18-1 26 0"/><path fill="#000001" d="M1198 469h6c1.253 3.758 1.124 7.255 1.098 11.168l-.005 2.408a2709 2709 0 0 1-.03 7.611q-.008 2.582-.014 5.163-.017 6.324-.049 12.65l-7 2-1-3-3 2c-4.44.58-8.64.473-12.875-1-4.174-3.928-6.037-8.176-6.312-13.875L1175 491l-1-2h2l.688-2.25c1.656-3.47 3-4.777 6.312-6.75 5.564-1.394 8.553-1.179 14 1zm-14 18c-2.546 3.437-2.437 6.851-2 11 1.322 3.069 1.322 3.069 4 5 3.492.738 6.698.672 9.938-1 1.697-3.196 2.188-6.429 2.062-10-1.574-3.62-2.689-4.793-6-7-3.77 0-5.007.005-8 2m13 18 1 2Z"/><path fill="#000101" d="M831 480c3.476 2.145 5.701 4.104 7 8 1.383 6.276 1.118 11.26-2 17-3.715 3.302-7.011 4.898-12 5-2.495-.796-4.643-1.822-7-3l-1 13h-6c-1.64-3.279-1.12-6.906-1.098-10.508l.005-2.547c.005-2.69.018-5.38.03-8.07q.008-2.732.014-5.465.017-6.705.049-13.41c6.75-.125 6.75-.125 9 1l1.848-.945c3.683-1.805 7.268-1.019 11.152-.055m-14 9c-1.79 3.58-1.466 7.562-.25 11.313 1.608 2.17 2.656 2.894 5.25 3.687 3.846-.08 5.49-.543 8.375-3.125 2.052-3.631 2.14-5.756 1.625-9.875-.884-2.947-.884-2.947-3-5-5.512-1.735-7.996-1.122-12 3"/><path fill="#010101" d="M1034 480c4.482 2.436 5.886 5.379 7.52 10 .48 2 .48 2 .48 6-15.12 1.96-15.12 1.96-21 0 1.088 3.25 1.088 3.25 3 6 2.262.238 2.262.238 4.875.25l2.68.078c2.855-.383 3.685-1.113 5.445-3.328l4 4c-1 3-1 3-3.191 4.66-4.806 2.293-9.601 1.982-14.809 1.34-4.07-2-6.63-4.162-9-8-.858-5.553-.737-10.5 1.75-15.562 5.634-6.104 10.251-7.212 18.25-5.438m-13 9 1 2c4.575 1.198 8.38.832 13 0-1.152-2.468-2.048-4.048-4-6-4.943-.645-6.87.148-10 4"/><path d="M984 469h6c1.262 2.525 1.099 4.312 1.063 7.125l-.028 2.758L991 481l1.785-.98c3.21-1.478 5.72-1.327 9.215-1.02 3.82 1.698 5.485 3.143 7 7 .227 2.565.227 2.565.195 5.422l-.02 3.105-.05 3.223-.027 3.27q-.036 3.99-.098 7.98h-6c-1.533-4.767-.972-9.648-.84-14.59-.155-3.308-.73-5.455-2.16-8.41-3.438.181-3.438.181-7 1-1.843 2.726-2.275 5.083-2.414 8.328l-.117 2.422-.094 2.5-.117 2.547A978 978 0 0 0 990 509h-6z"/><path fill="#000001" d="M928 480c3.728 2.796 5.792 5.496 7 10 .125 3.313.125 3.313 0 6-4.492 1.196-8.733.919-13.312.563l-2.245-.159q-2.722-.195-5.443-.404l2 6c5.206.882 8.14 1.295 13-1h4l1 4c-4.348 3.287-7.387 4.803-13 5-5.45-.765-8.518-2.615-11.832-6.871-2.135-3.892-2.48-7.747-2.168-12.129 1.612-4.747 4.248-7.717 8-11 4.44-1.48 8.469-1.057 13 0m-14 9v3h14l-1-5c-5.357-3.571-8.547-2.453-13 2"/><path fill="#40C3DA" d="m535 501 2.39.422c9.618 2.238 16.076 8.738 21.298 16.89 2.438 4.082 2.438 4.082 1.866 6.83L560 527l-1.601-.81a918 918 0 0 0-7.337-3.628l-2.517-1.275c-4.943-2.404-9.155-3.821-14.661-4.125-3.028-.26-4.593-1.19-6.884-3.162-2.292-3.178-4.249-6.497-6-10 2-3 2-3 3.625-3.75 3.567-.375 6.878.099 10.375.75"/><path fill="#000001" d="M873 479c4.273 1.63 7.677 3.999 10 8 1.538 4.614 1.922 9.383.281 14.04-2.105 3.989-4.29 6.01-8.281 7.96-5.46.816-10.435.632-15.562-1.437-3.98-4.184-5.467-8.382-5.415-14.16.655-4.82 1.78-7.732 5.477-10.966 4.388-3.281 8-4.162 13.5-3.437m-11 10c-1.55 3.1-1.29 5.579-1 9 1.842 3.138 3.03 4.627 6.438 5.938 3.14.076 4.839-.361 7.562-1.938 2.007-2.275 2.927-3.914 3.133-6.965-.244-3.854-.746-5.605-3.383-8.535-5.55-3.027-8.29-1.712-12.75 2.5"/><path d="M1132.25 481.063c3.953 2.748 5.578 5.171 6.75 9.937.357 5.55-.288 9.706-3.875 14.063-3.364 3.592-6.558 4.152-11.375 4.375-4.168-.034-6.569-.462-9.812-3.125-3.246-3.355-4.837-5.839-5.032-10.602.208-5.738 1.428-9.272 5.489-13.371 5.414-4.519 11.794-4.659 17.855-1.277M1117 488c-1.606 3.212-1.474 6.516-1 10 1.95 3.523 3.123 4.702 6.938 6 3.634 0 5.21-.8 8.062-3 1.724-3.448 1.363-7.223 1-11-.932-2.58-.932-2.58-3-4-4.932-1.644-7.668-.72-12 2"/><path fill="#40C2DA" d="M476 479c1.95 3.9 1.489 8.181.387 12.281-2.639 6.788-7.179 11.27-13.434 14.91-3.315 1.373-5.528.722-8.953-.191-7.482-4.447-7.482-4.447-9-9l1.582-.629c9.298-3.892 17.498-9.084 24.762-16.086C473 479 473 479 476 479"/><path d="M948 469q6.78-.075 13.562-.11 2.308-.015 4.615-.04c2.21-.025 4.418-.036 6.628-.045l2.09-.032c1.703 0 3.406.105 5.105.227l2 2-2 4h-12v34h-7c-.99-4.043-1.044-7.68-.879-11.832l.147-3.916.17-4.065.158-4.123q.194-5.033.404-10.064h-12z"/><path fill="#41C3DA" d="M529.625 394.5C532 396 532 396 533 398.563c0 6.003-1.598 10.703-5.375 15.375-4.167 3.273-7.335 4.364-12.625 4.062l-1 2c-5.773-1.998-8.03-3.656-11-9 2.985-3.607 5.747-4.762 10.035-6.207 2.734-1.104 4.738-2.893 6.965-4.793h2l.813-1.875c1.775-3.177 3.164-4.32 6.812-3.625"/><path fill="#000102" d="M780 480c3.125-.5 3.125-.5 7 0 2.43 2.403 4.226 5.09 6 8l.813-1.75c1.24-2.35 2.381-4.294 4.187-6.25 2.953-.742 4.92-.418 8 0-1.343 2.333-2.682 4.596-4.348 6.715l-1.402 1.785-1.36 1.656c-1.292 2.676-.815 4.052.11 6.844 1.607 2.651 1.607 2.651 3.563 5.188C806 506.8 806 506.8 806 509h-8l-5-9c-2.335 2.174-3.927 3.846-5.312 6.75L786 509c-3.687.313-3.687.313-7 0 2.477-5.367 5.658-10.133 9-15l-1.75-2.809-2.25-3.628-1.156-1.854C780 481.113 780 481.113 780 480"/><path d="M903.25 479.313 905 480v6c-2.652 1.075-5.284 2.095-8 3l-1 20h-7v-29h7l1 2 1.75-1.562C901 479 901 479 903.25 479.313"/><path fill="#010102" d="M843 469h7v40h-6c-1-1-1-1-1.114-4.694q0-2.467.016-4.935l.005-2.619c.005-2.771.018-5.543.03-8.315q.008-2.81.014-5.623.017-6.907.049-13.814"/><path fill="#000001" d="M1163 469h7v40h-6c-1.144-4.097-1.126-8.04-1.098-12.266l.005-2.404c.005-2.527.018-5.053.03-7.58q.008-2.574.014-5.148.017-6.301.049-12.602"/><path d="m1159 479 1 7-3 1-2-1-1 2h-2c-.886 2.66-1.18 4.48-1.316 7.23l-.127 2.432-.12 2.526-.13 2.56A2136 2136 0 0 0 1150 509h-6q-.25-5.954-.482-11.908a1473 1473 0 0 0-.166-4.054q-.122-2.907-.23-5.815l-.144-3.54C1143 481 1143 481 1144 480c2-.043 4-.04 6 0 3.233 0 5.767-1 9-1"/><path fill="#41C4DB" d="M419 489c6.558-.143 9.904 2.825 14.555 7.234 3.95 4.469 6.74 9.474 9.445 14.766-2.564 1.403-3.888 1.998-6.875 2.063-6.661-2.265-9.351-8.247-12.375-14.25A849 849 0 0 1 421 493a554 554 0 0 0-2-4"/><path fill="#41C2DA" d="M335 464c1.324 5.776.9 9.77-2 15-1.554 1.91-3.127 3.38-5 5-3.305-1.026-4.04-2.07-5.812-5.125-1.64-4.327-1.377-7.415-.188-11.875 4.252-3.469 7.736-4.28 13-3"/><path fill="#41C3DA" d="M523 369c3 1 3 1 4.57 3.766l1.555 3.484 1.57 3.453c1.125 2.843 1.995 5.264 2.305 8.297-1.437 2.813-1.437 2.813-3 5-3.38-.94-4.91-1.897-7.25-4.562-2.408-4.731-3.646-9.341-2.133-14.57.82-1.93.82-1.93 2.383-4.868"/><path d="M1064 375h8v1h-8z"/><path fill="#060709" d="M889 510h6l-2 2z"/><path fill="#050809" d="m1199 467 4 1Z"/><path fill="#132931" d="M769 440v3Z"/><path fill="#4AC7DC" d="m536 320 2 1-2 2z"/><path fill="#030305" d="m1043 445 3 1Z"/><path fill="#040809" d="m1090 355 2 2h-2z"/><path fill="#4AC8DD" d="m492 305 3 1Z"/><path fill="#848686" d="m948 1013 2 1Z"/><path fill="#88898A" d="m1090 1003 2 1Z"/><path fill="#838485" d="m948 997 2 1Z"/><path fill="#858687" d="m1090 979 2 1Z"/><path fill="#808283" d="m1090 955 2 1Z"/><path fill="#7D7E7F" d="m1090 931 2 1Z"/><path fill="#757776" d="m1090 891 2 1Z"/><path fill="#6C6C6D" d="m1090 843 2 1Z"/><path fill="#575A5A" d="m948 805 2 1Z"/><path fill="#5F6162" d="m1090 795 2 1Z"/><path fill="#4E5051" d="m1090 731 2 1Z"/><path fill="#4A4C4D" d="m1090 715 2 1Z"/><path fill="#46494A" d="m1090 699 2 1Z"/><path fill="#444748" d="m1090 691 2 1Z"/><path fill="#404344" d="m1090 675 2 1Z"/><path fill="#3F4143" d="m1090 667 2 1Z"/><path fill="#3C3F40" d="m1090 659 2 1Z"/><path fill="#383C3D" d="m1090 643 2 1Z"/><path fill="#333538" d="m1090 619 2 1Z"/><path fill="#303334" d="m1090 611 2 1Z"/><path fill="#4BC9DE" d="m495 573 2 1Z"/><path fill="#222627" d="m1090 563 2 1Z"/><path fill="#1F2224" d="m1090 555 2 1Z"/><path fill="#141718" d="m1090 531 2 1Z"/><path fill="#060808" d="m984 510 2 1Z"/><path fill="#050709" d="m963 510 2 1Z"/><path fill="#0C1A1C" d="m771 510 2 1Z"/><path fill="#0F2429" d="m754 510 2 1Z"/><path fill="#07181C" d="m758 476 2 1Z"/><path fill="#040707" d="m1166 467 2 1Z"/><path fill="#010303" d="m1062 467 2 1Z"/><path fill="#040808" d="m949 467 2 1Z"/><path fill="#010303" d="m1131 446 2 1Z"/><path fill="#49CBDF" d="m452 444 2 1Z"/><path fill="#000402" d="m1088 375 2 1Z"/><path fill="#000001" d="m1083 375 2 1Z"/><path fill="#000102" d="m1059 375 2 1Z"/><path fill="#0A0C0C" d="m1248 356 2 1Z"/><path fill="#060B0B" d="m1187 356 2 1Z"/><path fill="#080B0C" d="m1016 356 2 1Z"/><path fill="#090C0E" d="m968 356 2 1Z"/><path fill="#06090A" d="m957 356 2 1Z"/><path fill="#060B0C" d="m931 356 2 1Z"/><path fill="#070D0D" d="m926 356 2 1Z"/><path fill="#0A1618" d="m821 356 2 1Z"/><path fill="#262A2B" d="m1090 291 2 1Z"/><path fill="#47C7DF" d="m507 286 2 1Z"/><path fill="#48C5DD" d="m490 284 2 1Z"/><path fill="#4EC3D9" d="m393 280 2 1Z"/><path fill="#323537" d="m1090 251 2 1Z"/><path fill="#515152" d="m1090 147 2 1Z"/><path fill="#6C6D6C" d="m1090 59 2 1Z"/><path fill="#707172" d="m1090 43 2 1Z"/><path fill="#737374" d="m1090 35 2 1Z"/><path fill="#757577" d="m1090 27 2 1Z"/></svg>